<svg width="15" height="12" viewBox="0 0 15 12" fill="none" xmlns="http://www.w3.org/2000/svg">
<path d="M14.6237 2.68147L14.6231 2.6746C14.6106 2.55386 14.4864 1.47995 13.9736 0.933723C13.381 0.291252 12.7091 0.213203 12.3859 0.175781C12.3592 0.172691 12.3347 0.16983 12.3127 0.166855L12.287 0.164108C10.3394 0.0199127 7.39807 0.000228882 7.36863 0.000114441L7.36604 0L7.36346 0.000114441C7.33401 0.000228882 4.39269 0.0199127 2.42755 0.164108L2.40158 0.166855C2.38068 0.169716 2.35764 0.172348 2.33257 0.175323C2.01314 0.21286 1.34843 0.291023 0.754071 0.956726C0.265706 1.49712 0.124536 2.54803 0.110037 2.66613L0.108351 2.68147C0.103967 2.7317 0 3.92773 0 5.12844V6.25088C0 7.45159 0.103967 8.64761 0.108351 8.69797L0.109137 8.70552C0.121613 8.82431 0.2457 9.87854 0.756094 10.425C1.31336 11.046 2.01797 11.1281 2.39698 11.1723C2.45688 11.1793 2.50847 11.1852 2.54365 11.1915L2.57771 11.1963C3.70224 11.3053 7.22802 11.3589 7.37751 11.3611L7.382 11.3612L7.3865 11.3611C7.41595 11.361 10.3571 11.3413 12.3048 11.1971L12.3305 11.1944C12.3551 11.1911 12.3828 11.1881 12.4131 11.1849C12.7307 11.1506 13.3919 11.0793 13.978 10.4226C14.4664 9.88209 14.6077 8.83118 14.622 8.71319L14.6237 8.69785C14.6281 8.6475 14.7322 7.45159 14.7322 6.25088V5.12844C14.7321 3.92773 14.6281 2.73182 14.6237 2.68147V2.68147ZM13.8688 6.25088C13.8688 7.36221 13.7735 8.50674 13.7645 8.61179C13.7278 8.90121 13.5789 9.56612 13.3409 9.82944C12.9741 10.2404 12.5972 10.2811 12.3221 10.3108C12.2888 10.3143 12.258 10.3178 12.2301 10.3213C10.3464 10.46 7.51609 10.4813 7.38571 10.4821C7.23948 10.4799 3.7653 10.4258 2.67505 10.3227C2.61918 10.3134 2.55883 10.3063 2.49521 10.299C2.17252 10.2613 1.7308 10.2098 1.39114 9.82944L1.38316 9.82075C1.14937 9.57275 1.00472 8.951 0.967962 8.61523C0.961106 8.5358 0.86332 7.37778 0.86332 6.25088V5.12844C0.86332 4.01836 0.958408 2.8751 0.967625 2.76787C1.01135 2.42695 1.16308 1.80233 1.39114 1.54987C1.76924 1.12644 2.16791 1.07952 2.43159 1.04851C2.45677 1.04553 2.48026 1.04279 2.50195 1.03992C4.41315 0.900536 7.26376 0.879822 7.36604 0.879021C7.46832 0.879707 10.3179 0.900536 12.2121 1.03992C12.2354 1.0429 12.2608 1.04588 12.2881 1.04908C12.5593 1.08055 12.9693 1.12816 13.3454 1.53671L13.3489 1.54049C13.5827 1.78848 13.7274 2.42111 13.7641 2.76363C13.7706 2.83859 13.8688 3.99914 13.8688 5.12844V6.25088Z" fill="#828282"/>
<path d="M9.63366 5.00958L6.37899 3.19638C6.19185 3.09213 5.97065 3.09602 5.78722 3.20668C5.60368 3.31746 5.4942 3.51316 5.4942 3.73036V7.32564C5.4942 7.54182 5.603 7.73717 5.78531 7.84806C5.88051 7.90597 5.98605 7.93504 6.09181 7.93504C6.1887 7.93504 6.28581 7.91066 6.37517 7.86168L9.62995 6.07972C9.82316 5.97386 9.94376 5.76936 9.94466 5.54585C9.94545 5.32235 9.8263 5.11693 9.63366 5.00958V5.00958ZM6.35752 6.87337V4.1863L8.79001 5.54151L6.35752 6.87337Z" fill="#828282"/>
</svg>
