<svg width="15" height="15" viewBox="0 0 15 15" fill="none" xmlns="http://www.w3.org/2000/svg">
<path d="M11.4906 1.94189C10.8342 1.94189 10.3003 2.4856 10.3003 3.15382C10.3003 3.82216 10.8342 4.36586 11.4906 4.36586C12.147 4.36586 12.681 3.82216 12.681 3.15382C12.681 2.48549 12.147 1.94189 11.4906 1.94189ZM11.4906 3.48639C11.3105 3.48639 11.164 3.33716 11.164 3.15382C11.164 2.97037 11.3105 2.82126 11.4906 2.82126C11.6708 2.82126 11.8173 2.97037 11.8173 3.15382C11.8173 3.33716 11.6708 3.48639 11.4906 3.48639Z" fill="#828282"/>
<path d="M7.36609 3.39856C5.1449 3.39856 3.33789 5.23842 3.33789 7.5C3.33789 9.76158 5.1449 11.6014 7.36609 11.6014C9.58728 11.6014 11.3943 9.76158 11.3943 7.5C11.3943 5.23842 9.58728 3.39856 7.36609 3.39856V3.39856ZM7.36609 10.7221C5.62124 10.7221 4.20155 9.27669 4.20155 7.5C4.20155 5.72342 5.62124 4.27792 7.36609 4.27792C9.11106 4.27792 10.5306 5.72342 10.5306 7.5C10.5306 9.27669 9.11106 10.7221 7.36609 10.7221V10.7221Z" fill="#828282"/>
<path d="M10.7443 0H3.98785C1.78891 0 0 1.82144 0 4.06036V10.9397C0 13.1785 1.78891 15 3.98785 15H10.7444C12.9432 15 14.7321 13.1785 14.7321 10.9397V4.06036C14.7321 1.82144 12.9432 0 10.7443 0V0ZM13.8685 10.9397C13.8685 12.6936 12.467 14.1206 10.7443 14.1206H3.98785C2.26514 14.1206 0.863659 12.6936 0.863659 10.9397V4.06036C0.863659 2.30632 2.26514 0.879362 3.98785 0.879362H10.7444C12.467 0.879362 13.8685 2.30632 13.8685 4.06036V10.9397Z" fill="#828282"/>
</svg>
